<svg
    width="45"
    height="45"
    viewBox="0 0 45 45"
    fill="none"
    xmlns="http://www.w3.org/2000/svg"
>
    <circle
    cx="22.5"
    cy="22.5"
    r="21.5"
    fill="white"
    stroke="#455265"
    stroke-width="2"
    />
    <path
    d="M32.1418 3.53773L32.1417 3.53764C22.2081 -1.75624 10.1019 1.03754 3.41301 9.57125V4.38976C3.41301 3.67627 2.84712 3.11515 2.1315 3.11515C1.41589 3.11515 0.85 3.67627 0.85 4.38976V13.3866C0.85 14.1 1.41589 14.6612 2.1315 14.6612H11.1835C11.8992 14.6612 12.465 14.1 12.465 13.3866C12.465 12.6731 11.8992 12.112 11.1835 12.112H4.72465C8.4705 6.73426 14.6124 3.41515 21.2992 3.41515C32.4646 3.41515 41.5164 12.391 41.5389 23.4633C41.5387 34.5585 32.509 43.5785 21.3668 43.6008C20.6513 43.601 20.0856 44.162 20.0856 44.8754C20.0856 45.5889 20.6515 46.15 21.3671 46.15C29.7498 46.15 37.4722 41.5541 41.4362 34.218L41.4362 34.2179C47.3823 23.1909 43.2356 9.46963 32.1418 3.53773Z"
    fill="#455265"
    stroke="#455265"
    stroke-width="0.3"
    />
</svg>