<svg width="45" height="45" xmlns="http://www.w3.org/2000/svg" fill="none">

 <g>
  <title>Layer 1</title>
  <circle style="--darkreader-inline-fill: #2f3233; --darkreader-inline-stroke: #faf2e5;" id="svg_1" stroke-width="2" stroke="#455265" fill="white" r="21.5" cy="22.5" cx="22.5"/>
  <path style="--darkreader-inline-fill: #58667a; --darkreader-inline-stroke: #faf2e5;" stroke="#455265" id="svg_2" fill="#455265" d="m29.93955,10.00966l-0.00006,-0.00006c-6.41841,-3.42785 -14.2406,-1.61885 -18.5625,3.90684l0,-3.35508c0,-0.46199 -0.36564,-0.82533 -0.82802,-0.82533c-0.46238,0 -0.82802,0.36333 -0.82802,0.82533l0,5.82557c0,0.46194 0.36564,0.82532 0.82802,0.82532l5.84878,0c0.46244,0 0.82802,-0.36338 0.82802,-0.82532c0,-0.462 -0.36558,-0.82532 -0.82802,-0.82532l-4.17326,0c2.42031,-3.48215 6.38878,-5.63132 10.70933,-5.63132c7.21431,0 13.06296,5.81198 13.0775,12.98143c-0.00013,7.18428 -5.8345,13.02484 -13.03382,13.03928c-0.46231,0.00013 -0.82782,0.36338 -0.82782,0.82532c0,0.462 0.36565,0.82532 0.82802,0.82532c5.41632,0 10.40601,-2.9759 12.96727,-7.72612l0,-0.00006c3.84196,-7.14012 1.16265,-16.02481 -6.0054,-19.86579z"/>
 </g>
</svg>